# xmcd
#
# Track frame offsets:
#	150
#	17602
#	30203
#	41907
#	57699
#	75578
#	90291
#	106123
#	119917
#	136336
#	154538
#	165123
#	181307
#	192059
#	207048
#	223728
#
# Disc length: 3201 seconds
#
# Revision: 2
# Processed by: cddbd v1.5.2PL0 Copyright (c) Steve Scherf et al.
# Submitted via: EasyCDDAExtractor 12.0.1.1
#
DISCID=c60c7f10
DTITLE=Lasse Stefanz - Sommardansen 3 [CD1)
DYEAR=1999
DGENRE=Country
TTITLE0=Det finns en vind
TTITLE1=Den Väg Som Jag Ska Gå
TTITLE2=Njut Av Livet
TTITLE3=Mitt Hjärta Tar Semester Nu
TTITLE4=Ingen Annan
TTITLE5=Tiden Läker Alla Sår
TTITLE6=Felicita
TTITLE7=Om Du Går
TTITLE8=Shalala Lala
TTITLE9=Pizzerico
TTITLE10=Rented Tuxedo
TTITLE11=Min Famn
TTITLE12=Då Mår Jag Riktigt Bra
TTITLE13=Du Vinner Igen
TTITLE14=Främling
TTITLE15=Septemberregn
EXTD=
EXTT0=
EXTT1=
EXTT2=
EXTT3=
EXTT4=
EXTT5=
EXTT6=
EXTT7=
EXTT8=
EXTT9=
EXTT10=
EXTT11=
EXTT12=
EXTT13=
EXTT14=
EXTT15=
PLAYORDER=
